<?xml version="1.0" encoding="UTF-8"?>
<svg xmlns="http://www.w3.org/2000/svg" xmlns:xlink="http://www.w3.org/1999/xlink" viewBox="0 0 240 240" width="240px" height="240px">
<g id="surface181784993">
<path style=" stroke:none;fill-rule:nonzero;fill:rgb(12.54902%,78.823531%,59.215689%);fill-opacity:1;" d="M 110 0 L 110 30 L 130 30 L 130 0 Z M 42.226562 28.085938 L 28.085938 42.226562 L 49.296875 63.4375 L 63.4375 49.296875 Z M 197.773438 28.085938 L 176.5625 49.296875 L 190.703125 63.4375 L 211.914062 42.226562 Z M 120 50 C 81.398438 50 50 81.398438 50 120 C 50 147.851562 66.390625 171.882812 90 183.144531 L 90 210 C 90 221.03125 98.96875 230 110 230 L 130 230 C 141.03125 230 150 221.03125 150 210 L 150 183.144531 C 173.609375 171.882812 190 147.851562 190 120 C 190 81.398438 158.601562 50 120 50 Z M 0 110 L 0 130 L 30 130 L 30 110 Z M 210 110 L 210 130 L 240 130 L 240 110 Z M 49.296875 176.5625 L 28.085938 197.773438 L 42.226562 211.914062 L 63.4375 190.703125 Z M 190.703125 176.5625 L 176.5625 190.703125 L 197.773438 211.914062 L 211.914062 197.773438 Z M 190.703125 176.5625 "/>
</g>
</svg>
